<?xml version="1.0" standalone="no"?>
<!DOCTYPE svg PUBLIC "-//W3C//DTD SVG 20010904//EN"
 "http://www.w3.org/TR/2001/REC-SVG-20010904/DTD/svg10.dtd">
<svg version="1.0" xmlns="http://www.w3.org/2000/svg"
 width="936.000000pt" height="524.000000pt" viewBox="0 0 936.000000 524.000000"
 preserveAspectRatio="xMidYMid meet">

<g transform="translate(0.000000,524.000000) scale(0.100000,-0.100000)"
fill="#000000" stroke="none">
<path d="M4695 5098 c-278 -231 -492 -525 -572 -785 -24 -78 -27 -105 -27
-238 -1 -131 2 -160 22 -225 29 -92 88 -206 145 -281 52 -70 136 -163 141
-158 3 2 -1 42 -7 87 -21 161 21 312 116 420 62 69 93 125 113 201 15 60 14
124 -4 170 -10 27 89 -61 144 -127 64 -78 108 -167 125 -250 l12 -63 24 23
c31 29 89 146 99 200 8 42 8 43 15 13 3 -16 7 -84 8 -150 2 -196 -52 -341
-173 -470 -34 -36 -60 -65 -58 -65 11 0 151 75 191 102 79 54 183 167 223 243
55 106 68 163 68 291 0 172 -29 248 -165 429 -77 103 -123 193 -134 262 l-7
48 -21 -56 c-47 -122 -57 -179 -57 -321 -1 -151 -4 -155 -55 -64 -40 70 -77
178 -98 283 -18 93 -24 409 -9 486 4 20 3 37 -1 37 -4 0 -30 -19 -58 -42z"/>
<path d="M4054 4920 c-78 -21 -179 -53 -225 -71 -476 -182 -893 -518 -1172
-942 -129 -196 -255 -471 -307 -674 l-11 -43 -209 0 -209 0 -25 25 c-30 30
-59 32 -86 5 -28 -28 -25 -64 7 -89 30 -24 58 -20 86 12 l18 20 2771 -6 c2762
-7 2771 -7 2785 -27 17 -24 65 -27 87 -4 22 21 20 67 -2 87 -25 23 -68 21 -85
-3 -14 -20 -23 -20 -231 -18 l-218 3 -43 130 c-124 375 -300 666 -570 944
-330 340 -758 580 -1212 679 -40 9 -41 9 -34 -12 5 -11 17 -22 27 -24 60 -10
255 -70 354 -109 381 -149 711 -389 971 -705 204 -250 369 -558 447 -835 l20
-73 -247 0 -248 0 -23 63 c-55 152 -169 354 -285 502 -63 80 -230 248 -315
317 -79 63 -232 161 -330 210 -104 52 -112 55 -104 33 3 -8 54 -40 112 -71
355 -189 644 -481 818 -826 37 -73 94 -210 94 -224 0 -2 -796 -4 -1770 -4
-973 0 -1770 4 -1770 8 0 16 52 136 100 233 131 261 354 513 610 690 78 54
214 133 276 159 25 11 44 26 44 35 0 19 2 19 -62 -9 -232 -103 -529 -339 -694
-551 -118 -152 -233 -353 -285 -498 l-24 -67 -252 0 c-160 0 -253 4 -253 10 0
22 64 208 106 308 80 190 205 399 338 567 79 99 255 274 361 360 285 231 633
398 997 479 33 7 59 46 31 45 -10 0 -82 -18 -159 -39z"/>
<path d="M2410 2955 c0 -8 5 -15 10 -15 6 0 10 -58 10 -154 0 -130 -2 -155
-16 -160 -26 -10 -5 -26 36 -26 42 0 60 14 36 27 -11 6 -15 33 -17 113 l-2
105 58 3 c32 2 63 -2 68 -7 31 -31 36 6 6 40 -14 17 -22 20 -25 12 -4 -8 -25
-13 -55 -13 -48 0 -49 1 -49 30 l0 30 62 0 c49 0 66 -4 84 -21 35 -33 51 -13
18 22 -27 28 -31 29 -126 29 -80 0 -98 -3 -98 -15z"/>
<path d="M2675 2960 c-3 -5 1 -13 9 -16 24 -9 24 -309 0 -318 -39 -15 5 -26
104 -26 l107 0 23 35 c38 60 25 75 -23 25 -26 -27 -35 -30 -92 -30 l-63 0 0
110 0 110 39 0 c22 0 43 -5 46 -10 15 -24 24 4 10 31 -16 30 -29 36 -40 19 -3
-5 -17 -10 -29 -10 -19 0 -25 7 -28 30 -4 30 -4 30 41 30 32 0 51 -6 68 -22
30 -29 42 -15 16 20 -19 25 -26 27 -101 30 -48 2 -83 -1 -87 -8z"/>
<path d="M2967 2963 c-12 -11 -8 -23 8 -23 13 0 15 -24 15 -155 0 -131 -2
-155 -15 -155 -8 0 -15 -7 -15 -15 0 -11 12 -15 45 -15 33 0 45 4 45 15 0 8
-7 15 -16 15 -11 0 -14 8 -12 33 3 31 7 34 47 28 5 0 19 -17 31 -37 31 -50 61
-67 94 -55 16 7 26 18 26 31 0 24 -28 27 -44 4 -10 -13 -15 -9 -38 25 l-27 41
30 16 c66 33 91 134 47 189 -31 39 -93 65 -159 65 -31 0 -59 -3 -62 -7z m160
-43 c42 -25 56 -54 50 -103 -7 -49 -32 -76 -83 -87 -71 -17 -74 -12 -74 106
l0 104 38 0 c20 0 51 -9 69 -20z"/>
<path d="M3250 2955 c0 -8 5 -15 10 -15 6 0 10 -58 10 -154 0 -130 -2 -155
-16 -160 -27 -10 -5 -26 37 -26 28 0 39 4 39 15 0 8 -7 15 -15 15 -13 0 -15
22 -15 137 0 75 2 134 4 132 2 -2 38 -70 81 -151 44 -85 83 -148 91 -148 11 0
14 30 14 170 0 144 2 170 15 170 8 0 15 7 15 16 0 12 -9 14 -42 12 -38 -3 -69
-28 -34 -28 14 0 16 -18 16 -132 l0 -133 -66 125 c-36 69 -72 135 -80 148 -17
25 -64 31 -64 7z"/>
<path d="M3630 2955 c0 -8 7 -15 15 -15 8 0 15 -3 15 -8 0 -4 -20 -72 -45
-152 -25 -80 -45 -146 -45 -147 0 -2 -7 -3 -15 -3 -8 0 -15 -7 -15 -15 0 -11
11 -15 39 -15 43 0 61 14 37 27 -10 5 -13 16 -9 31 5 22 10 23 87 20 75 -3 81
-5 84 -25 2 -13 -1 -23 -7 -23 -6 0 -11 -7 -11 -15 0 -11 12 -15 45 -15 33 0
45 4 45 15 0 8 -6 15 -13 15 -9 0 -31 55 -61 148 -65 204 -58 192 -106 192
-29 0 -40 -4 -40 -15z m124 -217 l6 -28 -69 0 -69 0 29 93 c16 50 32 99 35
107 6 14 49 -97 68 -172z"/>
<path d="M3877 2964 c-12 -12 -8 -24 8 -24 13 0 15 -24 15 -154 0 -128 -3
-155 -15 -160 -29 -11 -15 -26 24 -26 43 0 61 14 36 27 -13 8 -15 30 -13 139
l3 129 75 -145 c104 -200 110 -199 110 19 0 149 2 171 16 171 35 0 4 25 -34
28 -33 2 -42 0 -42 -12 0 -9 7 -16 15 -16 13 0 15 -21 15 -132 l0 -133 -39 70
c-21 39 -56 104 -77 145 -31 60 -44 76 -64 78 -14 2 -29 0 -33 -4z"/>
<path d="M4180 2956 c0 -9 5 -16 10 -16 6 0 10 -58 10 -155 0 -97 -4 -155 -10
-155 -5 0 -10 -7 -10 -15 0 -12 14 -15 63 -15 149 0 227 64 227 187 0 65 -27
112 -84 147 -39 24 -61 30 -126 34 -69 4 -80 2 -80 -12z m188 -43 c99 -73 95
-209 -8 -260 -24 -13 -61 -23 -82 -23 l-38 0 0 156 0 157 51 -5 c28 -3 62 -14
77 -25z"/>
<path d="M4562 2950 c-45 -27 -72 -89 -72 -165 0 -86 30 -143 92 -173 41 -21
51 -22 89 -12 75 21 120 93 118 191 -1 71 -29 128 -79 162 -34 24 -107 22
-148 -3z m134 -25 c71 -46 72 -218 2 -281 -12 -12 -35 -19 -60 -19 -34 0 -45
6 -69 34 -37 45 -55 122 -40 177 26 98 96 135 167 89z"/>
<path d="M5010 2932 c-84 -84 -77 -248 12 -315 41 -30 111 -28 146 5 24 23 29
25 41 11 23 -25 35 0 17 35 -22 43 -21 79 4 87 11 3 20 13 20 21 0 11 -16 14
-69 14 -39 0 -73 -5 -76 -11 -10 -14 -4 -18 36 -22 41 -5 48 -27 25 -81 -20
-49 -56 -62 -104 -39 -48 24 -72 73 -72 148 0 76 24 123 74 149 l38 19 22 -28
c24 -29 56 -30 56 -1 0 29 -30 46 -82 46 -45 0 -54 -4 -88 -38z"/>
<path d="M5357 2963 c-12 -11 -8 -23 8 -23 21 0 20 -9 -26 -160 -26 -82 -49
-141 -61 -150 -25 -20 -14 -30 34 -30 26 0 38 4 38 14 0 8 -6 16 -14 18 -10 2
-11 9 -5 26 8 20 15 22 84 22 69 0 76 -2 84 -22 6 -17 5 -24 -5 -26 -8 -2 -14
-10 -14 -18 0 -10 13 -14 45 -14 33 0 45 4 45 15 0 8 -6 15 -13 15 -8 0 -34
67 -66 170 l-54 170 -37 0 c-20 0 -40 -3 -43 -7z m122 -240 c1 -9 -18 -13 -64
-13 -36 0 -65 3 -65 7 0 4 15 55 32 112 l33 105 32 -99 c17 -55 32 -106 32
-112z"/>
<path d="M5595 2960 c-3 -6 1 -13 9 -16 14 -5 16 -30 16 -159 0 -133 -2 -154
-17 -159 -37 -15 7 -27 88 -24 l84 3 23 49 c32 67 22 79 -19 23 -31 -42 -38
-46 -76 -47 l-43 0 0 155 c0 97 4 155 10 155 6 0 10 7 10 15 0 17 -75 22 -85
5z"/>
<path d="M5840 2956 c0 -9 7 -16 15 -16 13 0 15 -24 15 -155 0 -131 -2 -155
-15 -155 -8 0 -15 -7 -15 -15 0 -13 14 -15 90 -13 l90 3 25 52 c30 67 16 77
-25 18 -29 -42 -34 -45 -75 -45 l-45 0 0 155 c0 135 2 155 16 155 35 0 4 25
-34 28 -33 2 -42 0 -42 -12z"/>
<path d="M6087 2963 c-12 -11 -8 -23 8 -23 13 0 15 -24 15 -155 0 -135 -2
-155 -16 -155 -9 0 -14 -6 -12 -12 3 -9 37 -14 111 -16 l106 -3 27 41 c34 51
24 63 -19 22 -30 -30 -38 -32 -100 -32 l-68 0 3 108 3 107 38 3 c21 2 45 -2
53 -9 11 -9 14 -8 14 7 0 11 -7 27 -14 37 -14 19 -36 23 -36 7 0 -5 -13 -10
-30 -10 -27 0 -30 3 -30 30 0 28 2 30 41 30 26 0 52 -8 71 -21 38 -27 46 -19
17 20 -22 30 -25 31 -99 31 -42 0 -80 -3 -83 -7z"/>
<path d="M6460 2963 c-61 -22 -108 -127 -95 -211 11 -76 40 -121 92 -144 39
-17 51 -19 84 -9 21 6 45 21 52 32 13 17 16 18 27 4 7 -8 16 -15 21 -15 12 0
12 33 0 45 -5 6 -11 26 -15 46 -6 33 -4 37 19 43 15 4 25 12 22 19 -5 15 -136
22 -150 8 -18 -18 1 -26 62 -30 19 -1 8 -76 -14 -102 -26 -28 -49 -32 -90 -15
-98 42 -99 253 -1 300 46 22 55 20 66 -10 7 -16 16 -24 27 -22 25 5 29 39 7
55 -18 13 -85 16 -114 6z"/>
<path d="M6753 2949 c-47 -30 -68 -81 -68 -164 0 -92 24 -141 86 -173 51 -26
95 -23 142 10 91 65 88 271 -5 328 -43 26 -113 26 -155 -1z m124 -19 c79 -48
94 -190 27 -269 -74 -88 -184 -14 -184 124 0 72 20 119 62 145 41 25 55 25 95
0z"/>
<path d="M1693 2813 c-19 -7 -16 -60 3 -67 27 -11 43 -7 54 14 21 38 -14 71
-57 53z"/>
<path d="M1990 2805 c-26 -32 13 -81 48 -59 34 22 22 74 -18 74 -10 0 -23 -7
-30 -15z"/>
<path d="M7330 2805 c-26 -32 13 -81 48 -59 34 22 22 74 -18 74 -10 0 -23 -7
-30 -15z"/>
<path d="M7630 2800 c-16 -31 4 -62 38 -58 19 2 28 10 30 26 7 47 -47 72 -68
32z"/>
<path d="M3103 2432 c-32 -5 -47 -26 -28 -42 10 -8 29 -10 62 -5 77 12 3045
17 3057 5 12 -12 86 -13 105 -1 20 13 6 41 -21 43 -37 2 -62 -1 -83 -12 -28
-14 -2999 -9 -3040 5 -16 6 -40 9 -52 7z"/>
<path d="M3880 2140 c0 -5 5 -10 10 -10 15 0 13 -153 -2 -168 -9 -9 -6 -12 17
-12 23 0 26 3 17 12 -7 7 -12 22 -12 34 0 17 8 23 35 28 19 4 41 14 50 22 23
23 19 70 -7 88 -25 18 -108 22 -108 6z m83 -9 c56 -21 41 -91 -18 -91 -35 0
-35 0 -35 44 0 26 5 46 13 49 6 3 13 6 14 6 1 1 13 -3 26 -8z"/>
<path d="M4154 2135 c6 -16 -30 -144 -45 -159 -14 -16 -10 -26 10 -26 14 0 18
5 14 20 -3 13 0 20 8 21 8 0 29 2 47 4 31 3 37 -2 33 -32 -1 -7 7 -13 19 -13
20 0 28 15 11 22 -5 2 -20 42 -35 91 -22 73 -30 87 -47 87 -15 0 -19 -5 -15
-15z m44 -71 c16 -56 17 -54 -24 -54 -27 0 -35 4 -31 14 3 8 11 33 18 55 14
47 20 44 37 -15z"/>
<path d="M4355 2050 c0 -85 2 -100 16 -100 12 0 15 7 11 25 -3 18 0 25 11 25
8 0 22 -11 31 -25 19 -28 56 -34 56 -9 0 13 -3 14 -14 5 -10 -9 -17 -6 -29 13
-15 22 -15 24 3 29 25 7 44 49 36 81 -7 29 -52 56 -93 56 l-28 0 0 -100z m103
31 c4 -41 -12 -61 -49 -61 -28 0 -29 1 -29 53 0 30 3 56 6 60 4 3 20 0 38 -7
24 -10 32 -19 34 -45z"/>
<path d="M4570 2141 c0 -6 5 -11 10 -11 15 0 13 -153 -2 -168 -9 -9 -6 -12 17
-12 23 0 26 3 17 12 -7 7 -12 18 -12 25 0 21 25 15 48 -12 12 -14 28 -25 36
-25 17 0 31 18 21 28 -3 3 -10 0 -15 -8 -10 -16 -12 -15 -27 14 -9 16 -6 23
13 39 30 23 33 76 4 102 -23 20 -110 34 -110 16z m103 -29 c37 -32 8 -92 -45
-92 -27 0 -28 1 -28 53 0 30 3 56 6 59 8 9 47 -3 67 -20z"/>
<path d="M4805 2050 c0 -82 3 -100 15 -100 12 0 15 18 15 100 0 82 -3 100 -15
100 -12 0 -15 -18 -15 -100z"/>
<path d="M4945 2050 l0 -100 43 0 c37 0 44 4 53 26 12 33 5 43 -11 15 -7 -14
-21 -21 -39 -21 l-28 0 0 80 c0 44 4 80 9 80 4 0 8 5 8 10 0 6 -8 10 -17 10
-16 0 -18 -11 -18 -100z"/>
<path d="M5145 2050 l0 -100 42 0 c32 0 46 5 57 22 24 33 19 45 -7 20 -13 -12
-34 -22 -46 -22 -23 0 -23 2 -19 90 2 75 0 90 -12 90 -12 0 -15 -18 -15 -100z"/>
<path d="M5394 2134 c7 -19 -33 -164 -46 -164 -4 0 -8 -4 -8 -10 0 -5 9 -10
21 -10 16 0 19 4 14 20 -3 11 -5 20 -3 21 86 13 94 11 89 -28 -1 -7 7 -13 19
-13 21 0 26 10 11 26 -5 5 -21 46 -36 92 -22 67 -30 82 -47 82 -14 0 -18 -5
-14 -16z m47 -69 l16 -55 -37 0 -37 0 15 55 c8 30 18 55 21 55 3 0 13 -25 22
-55z"/>
<path d="M1814 2085 c-26 -27 -26 -55 1 -84 20 -21 66 -17 86 8 l17 21 721 0
c634 0 721 2 721 15 0 13 -87 15 -720 15 l-719 0 -25 25 c-32 32 -50 32 -82 0z"/>
<path d="M7480 2075 l-23 -25 -724 0 c-399 0 -723 -4 -723 -9 0 -4 327 -12
728 -16 696 -7 728 -8 745 -26 52 -55 133 15 86 74 -26 34 -59 34 -89 2z"/>
<path d="M3433 2055 c-7 -20 2 -29 21 -22 9 4 13 13 10 22 -8 19 -23 19 -31 0z"/>
<path d="M3593 2055 c-7 -20 2 -29 21 -22 9 4 13 13 10 22 -8 19 -23 19 -31 0z"/>
<path d="M5755 2061 c-8 -15 3 -31 21 -31 9 0 14 7 12 17 -4 20 -24 28 -33 14z"/>
<path d="M5915 2061 c-8 -15 3 -31 21 -31 9 0 14 7 12 17 -4 20 -24 28 -33 14z"/>
<path d="M2335 1988 c15 -70 80 -258 127 -368 308 -720 964 -1256 1732 -1414
334 -69 766 -58 1096 28 335 87 678 264 940 484 192 161 384 381 512 589 111
179 217 415 268 598 12 43 24 85 27 92 3 8 -3 13 -16 13 -15 0 -23 -10 -31
-42 -74 -287 -231 -603 -428 -858 -91 -117 -317 -340 -435 -429 -334 -249
-691 -400 -1102 -462 -196 -30 -493 -30 -691 0 -730 110 -1360 546 -1732 1196
-89 156 -204 444 -227 568 -6 28 -12 37 -27 37 -17 0 -19 -5 -13 -32z"/>
<path d="M2870 2011 c0 -5 13 -45 29 -88 98 -264 247 -496 447 -697 143 -143
384 -320 384 -282 0 8 -35 38 -77 67 -43 28 -105 73 -138 99 -94 75 -283 276
-357 380 -81 114 -183 310 -229 438 -19 51 -39 92 -46 92 -7 0 -13 -4 -13 -9z"/>
<path d="M6487 2013 c-3 -4 -21 -50 -41 -102 -51 -133 -145 -310 -224 -421
-95 -135 -329 -367 -459 -455 -57 -38 -103 -75 -103 -82 0 -19 5 -17 68 23
221 142 440 368 589 609 95 152 205 407 185 427 -6 6 -12 6 -15 1z"/>
<path d="M4225 1304 c-108 -19 -217 -73 -256 -126 l-29 -41 0 -164 c0 -135 3
-172 17 -201 53 -111 234 -202 464 -232 41 -5 254 -9 474 -9 390 0 401 0 455
22 37 15 62 33 78 57 22 34 23 41 20 189 l-3 153 -37 33 c-54 46 -97 55 -259
55 -171 0 -187 6 -205 71 -37 128 -240 210 -514 208 -69 0 -161 -7 -205 -15z
m491 -68 c44 -14 99 -39 121 -55 37 -27 47 -44 69 -115 5 -16 22 -38 37 -50
26 -19 46 -22 200 -27 179 -6 197 -9 235 -42 49 -45 9 -107 -81 -127 -36 -8
-180 -11 -472 -8 -414 4 -421 5 -516 30 -156 42 -262 105 -299 179 -48 93 -5
164 127 210 90 31 155 38 333 35 146 -3 174 -6 246 -30z m-581 -385 c156 -77
306 -94 805 -89 359 3 377 4 418 24 l42 21 0 -83 c0 -77 -2 -84 -26 -103 -51
-40 -88 -42 -543 -38 -407 3 -441 5 -518 25 -160 42 -270 109 -307 186 -9 20
-16 60 -16 96 l0 62 40 -35 c23 -19 70 -49 105 -66z"/>
<path d="M4265 1220 c-165 -26 -246 -78 -230 -151 18 -81 139 -155 311 -190
87 -18 131 -19 539 -17 388 3 446 5 460 19 23 22 9 47 -33 59 -21 5 -100 10
-177 10 -207 0 -258 21 -276 114 -14 77 -53 108 -179 140 -77 20 -325 30 -415
16z m204 -103 c24 -56 39 -66 100 -74 41 -5 51 -9 51 -24 0 -16 -8 -19 -50
-19 -27 0 -96 9 -152 20 -57 11 -124 20 -150 20 -55 0 -78 7 -78 25 0 18 23
25 83 25 55 0 122 25 146 53 21 26 30 21 50 -26z"/>
</g>
</svg>
