<?xml version="1.0" standalone="no"?>
<!DOCTYPE svg PUBLIC "-//W3C//DTD SVG 20010904//EN"
 "http://www.w3.org/TR/2001/REC-SVG-20010904/DTD/svg10.dtd">
<svg version="1.0" xmlns="http://www.w3.org/2000/svg"
 width="938.000000pt" height="520.000000pt" viewBox="0 0 938.000000 520.000000"
 preserveAspectRatio="xMidYMid meet">

<g transform="translate(0.000000,520.000000) scale(0.100000,-0.100000)"
fill="#000000" stroke="none">
<path d="M4715 5032 c-159 -140 -317 -320 -403 -462 -46 -78 -103 -204 -129
-287 -24 -78 -27 -105 -27 -238 -1 -168 14 -236 79 -365 54 -105 214 -314 230
-298 3 2 1 29 -5 58 -22 116 -5 252 45 349 13 27 47 75 76 108 61 69 84 112
105 194 15 58 13 123 -4 168 -10 27 89 -61 144 -127 64 -78 108 -167 125 -250
l12 -63 24 23 c32 30 89 146 99 200 l7 43 8 -35 c5 -19 9 -84 9 -145 1 -193
-55 -344 -174 -470 -34 -36 -59 -65 -56 -65 11 0 145 72 188 102 80 54 184
167 224 243 55 105 68 163 68 290 0 171 -34 260 -166 432 -79 104 -112 167
-128 246 l-12 60 -26 -69 c-44 -120 -53 -173 -53 -311 0 -147 -3 -149 -55 -57
-39 67 -75 174 -97 283 -18 91 -24 410 -9 484 4 20 3 37 -1 37 -5 0 -49 -35
-98 -78z"/>
<path d="M4126 4894 c-580 -156 -1071 -509 -1405 -1011 -132 -199 -258 -474
-311 -680 l-11 -43 -209 0 -209 0 -25 25 c-30 30 -59 32 -86 5 -28 -28 -25
-64 7 -89 30 -24 59 -20 84 12 l17 20 2772 -6 c2763 -7 2773 -7 2787 -27 17
-24 65 -27 87 -4 22 21 20 67 -2 87 -25 23 -68 21 -85 -3 -14 -20 -23 -20
-231 -18 l-218 3 -43 130 c-212 639 -639 1131 -1244 1435 -121 60 -384 154
-513 183 -66 15 -66 15 -59 -7 5 -11 17 -22 27 -24 11 -2 69 -17 129 -34 634
-175 1180 -623 1483 -1216 60 -116 133 -300 161 -399 l20 -73 -248 0 -248 0
-23 63 c-30 84 -122 266 -178 352 -72 112 -129 183 -231 289 -114 116 -202
191 -329 275 -85 57 -275 161 -295 161 -22 0 19 -42 58 -59 25 -11 87 -45 138
-75 304 -179 551 -437 716 -747 41 -79 111 -237 111 -254 0 -3 -796 -5 -1770
-5 -973 0 -1770 4 -1770 8 0 31 105 250 172 360 173 284 458 544 761 696 53
27 97 55 97 62 0 20 -3 19 -100 -30 -422 -213 -765 -582 -927 -997 l-38 -99
-252 0 c-160 0 -253 4 -253 10 0 22 64 208 106 308 178 426 494 804 889 1066
200 133 455 247 702 314 93 25 138 42 144 54 13 25 -1 23 -155 -18z"/>
<path d="M2465 2930 c-3 -6 1 -13 9 -16 14 -5 16 -30 16 -159 0 -129 -2 -154
-16 -159 -26 -10 -5 -26 36 -26 41 0 62 16 36 26 -13 5 -16 26 -16 115 l0 109
59 0 c33 0 63 -4 66 -10 9 -15 25 -12 25 4 0 21 -40 64 -46 49 -4 -8 -25 -13
-55 -13 -48 0 -49 1 -49 30 l0 30 62 0 c49 0 66 -4 84 -21 35 -33 51 -13 18
22 -27 28 -31 29 -125 29 -55 0 -101 -4 -104 -10z"/>
<path d="M2735 2930 c-3 -5 1 -13 9 -16 24 -9 24 -309 0 -318 -39 -15 5 -26
104 -26 l107 0 23 35 c38 60 25 75 -23 25 -26 -27 -35 -30 -92 -30 l-63 0 0
110 0 110 39 0 c22 0 43 -5 46 -10 15 -24 24 4 10 31 -16 30 -29 36 -40 19 -3
-5 -17 -10 -31 -10 -20 0 -24 5 -24 30 0 29 2 30 42 30 29 0 49 -7 65 -22 30
-29 42 -15 16 20 -19 25 -26 27 -101 30 -48 2 -83 -1 -87 -8z"/>
<path d="M3027 2933 c-12 -11 -8 -23 8 -23 13 0 15 -24 15 -155 0 -131 -2
-155 -15 -155 -8 0 -15 -7 -15 -15 0 -11 12 -15 45 -15 33 0 45 4 45 15 0 8
-7 15 -15 15 -17 0 -22 55 -6 64 18 11 50 -9 80 -51 16 -23 39 -44 50 -48 27
-8 61 11 61 35 0 28 -16 33 -38 10 -18 -20 -19 -20 -46 21 -14 23 -25 42 -24
43 2 1 15 7 31 14 38 16 67 68 67 121 0 77 -78 131 -191 131 -25 0 -49 -3 -52
-7z m160 -43 c17 -10 37 -29 43 -41 16 -28 7 -95 -16 -120 -21 -23 -80 -41
-111 -33 -22 6 -23 10 -23 110 l0 104 38 0 c20 0 51 -9 69 -20z"/>
<path d="M3305 2930 c-3 -6 1 -13 9 -16 24 -9 24 -309 0 -318 -27 -10 -5 -26
37 -26 28 0 39 4 39 15 0 8 -7 15 -15 15 -13 0 -15 21 -15 130 0 72 2 130 4
130 3 0 39 -65 81 -145 44 -83 83 -145 91 -145 12 0 14 29 14 170 0 144 2 170
15 170 8 0 15 7 15 16 0 12 -9 14 -42 12 -38 -3 -69 -28 -34 -28 14 0 16 -18
16 -132 l0 -133 -78 148 c-70 134 -79 147 -104 147 -15 0 -30 -5 -33 -10z"/>
<path d="M3690 2925 c0 -8 7 -15 15 -15 18 0 18 -7 6 -46 -6 -16 -26 -82 -46
-146 -24 -80 -41 -118 -51 -118 -8 0 -14 -7 -14 -15 0 -11 11 -15 39 -15 43 0
61 14 37 27 -10 5 -13 16 -9 31 5 20 11 22 83 22 72 0 79 -2 86 -22 4 -13 2
-24 -5 -26 -6 -2 -11 -10 -11 -18 0 -10 13 -14 45 -14 33 0 45 4 45 15 0 8 -6
15 -14 15 -9 0 -30 51 -60 148 -65 203 -58 192 -106 192 -29 0 -40 -4 -40 -15z
m129 -237 c1 -5 -30 -8 -68 -8 l-69 0 29 93 c16 50 32 99 35 107 4 9 20 -25
40 -85 18 -55 33 -103 33 -107z"/>
<path d="M3937 2934 c-12 -12 -8 -24 8 -24 13 0 15 -24 15 -155 0 -131 -2
-155 -15 -155 -8 0 -15 -7 -15 -15 0 -11 11 -15 39 -15 43 0 61 14 36 27 -13
8 -15 30 -13 139 l3 129 75 -145 c104 -200 110 -199 110 19 0 149 2 171 16
171 35 0 4 25 -34 28 -33 2 -42 0 -42 -12 0 -9 7 -16 15 -16 13 0 15 -21 15
-132 l0 -133 -39 70 c-21 39 -56 104 -77 145 -31 60 -44 76 -64 78 -14 2 -29
0 -33 -4z"/>
<path d="M4240 2926 c0 -9 5 -16 10 -16 6 0 10 -58 10 -155 0 -97 -4 -155 -10
-155 -5 0 -10 -7 -10 -15 0 -12 14 -15 64 -15 146 0 226 66 226 187 0 65 -27
112 -84 147 -39 24 -61 30 -126 34 -69 4 -80 2 -80 -12z m188 -43 c66 -50 90
-136 55 -203 -22 -42 -90 -80 -145 -80 l-38 0 0 156 0 157 51 -5 c28 -3 62
-14 77 -25z"/>
<path d="M4622 2920 c-93 -57 -96 -263 -5 -328 71 -50 167 -26 207 53 28 53
29 164 2 217 -36 74 -133 101 -204 58z m113 -14 c46 -20 75 -78 75 -151 0
-101 -41 -160 -112 -160 -53 0 -91 42 -108 117 -19 83 15 175 74 198 29 12 32
12 71 -4z"/>
<path d="M5070 2902 c-84 -84 -77 -248 12 -315 41 -30 111 -28 146 5 24 23 29
25 41 11 23 -25 35 0 17 35 -23 44 -21 83 4 89 12 3 19 11 17 17 -5 15 -139
15 -144 -1 -3 -7 10 -13 34 -15 34 -3 38 -6 41 -33 3 -39 -29 -91 -63 -99 -36
-9 -85 20 -107 64 -24 47 -24 144 0 190 11 20 34 43 56 54 l38 19 22 -28 c24
-29 56 -30 56 -1 0 29 -30 46 -82 46 -45 0 -54 -4 -88 -38z"/>
<path d="M5417 2933 c-12 -11 -8 -23 8 -23 21 0 20 -6 -26 -159 -26 -84 -49
-142 -61 -151 -25 -20 -14 -30 34 -30 26 0 38 4 38 14 0 8 -6 16 -14 18 -10 2
-11 9 -5 26 8 20 15 22 84 22 69 0 76 -2 84 -22 6 -17 5 -24 -5 -26 -8 -2 -14
-10 -14 -18 0 -10 13 -14 45 -14 33 0 45 4 45 15 0 8 -6 15 -13 15 -8 0 -34
67 -66 170 l-54 170 -37 0 c-20 0 -40 -3 -43 -7z m123 -245 c0 -5 -29 -8 -65
-8 -36 0 -65 3 -65 7 0 4 14 54 32 112 l32 105 33 -104 c18 -58 33 -108 33
-112z"/>
<path d="M5655 2930 c-3 -6 1 -13 9 -16 14 -5 16 -30 16 -159 0 -133 -2 -154
-17 -159 -37 -15 7 -27 88 -24 l84 3 23 49 c32 67 22 79 -19 23 -31 -42 -38
-46 -76 -47 l-43 0 0 155 c0 97 4 155 10 155 6 0 10 7 10 15 0 17 -75 22 -85
5z"/>
<path d="M5900 2926 c0 -9 7 -16 15 -16 13 0 15 -24 15 -155 0 -131 -2 -155
-15 -155 -8 0 -15 -7 -15 -15 0 -13 15 -15 91 -13 l92 3 23 52 c12 29 19 55
15 57 -5 3 -23 -15 -40 -39 -30 -42 -36 -45 -77 -45 l-44 0 0 155 c0 135 2
155 16 155 35 0 4 25 -34 28 -33 2 -42 0 -42 -12z"/>
<path d="M6147 2933 c-12 -11 -8 -23 8 -23 13 0 15 -24 15 -155 0 -131 -2
-155 -15 -155 -8 0 -15 -7 -15 -15 0 -12 19 -15 110 -15 l110 0 26 40 c34 51
24 63 -19 22 -30 -30 -38 -32 -100 -32 l-67 0 0 110 0 110 43 0 c24 0 48 -5
55 -12 17 -17 16 21 -2 45 -14 19 -36 23 -36 7 0 -5 -13 -10 -30 -10 -27 0
-30 3 -30 30 0 28 2 30 41 30 26 0 52 -8 71 -21 38 -27 46 -18 18 20 -21 30
-24 31 -99 31 -43 0 -81 -3 -84 -7z"/>
<path d="M6485 2909 c-66 -58 -81 -179 -33 -272 27 -54 94 -84 149 -68 21 6
45 21 52 32 13 17 16 18 27 4 7 -8 16 -15 21 -15 12 0 11 34 -1 46 -6 6 -11
28 -13 50 -2 34 1 39 21 42 13 2 21 9 19 15 -5 17 -149 16 -154 0 -3 -9 8 -13
36 -13 41 0 41 0 41 -39 0 -41 -27 -86 -60 -96 -10 -3 -35 1 -55 9 -98 42 -99
253 -1 300 46 22 55 20 66 -10 12 -30 43 -30 48 0 6 28 -25 46 -80 46 -39 0
-54 -6 -83 -31z"/>
<path d="M6813 2919 c-47 -30 -68 -81 -68 -164 0 -92 24 -141 86 -173 51 -26
95 -23 142 10 91 65 88 271 -5 328 -43 26 -113 26 -155 -1z m124 -19 c79 -48
94 -190 27 -269 -74 -89 -184 -14 -184 126 0 73 24 122 70 145 44 22 48 22 87
-2z"/>
<path d="M1753 2783 c-7 -2 -13 -18 -13 -34 0 -23 5 -30 27 -35 19 -5 30 -2
40 11 17 24 16 30 -3 49 -16 16 -29 19 -51 9z"/>
<path d="M2050 2775 c-26 -32 13 -81 48 -59 34 22 22 74 -18 74 -10 0 -23 -7
-30 -15z"/>
<path d="M7390 2775 c-26 -32 13 -81 48 -59 34 22 22 74 -18 74 -10 0 -23 -7
-30 -15z"/>
<path d="M7690 2770 c-8 -14 -8 -26 0 -40 18 -33 70 -23 70 14 0 45 -50 63
-70 26z"/>
<path d="M3163 2402 c-32 -5 -47 -26 -28 -42 10 -8 29 -10 62 -5 77 12 3045
17 3057 5 12 -12 86 -13 105 -1 20 13 6 41 -21 43 -37 2 -62 -1 -83 -12 -28
-14 -2999 -9 -3040 5 -16 6 -40 9 -52 7z"/>
<path d="M3992 2018 c1 -62 3 -89 5 -60 4 49 6 52 32 52 37 0 51 17 51 60 0
45 -15 60 -57 60 l-33 0 2 -112z m66 90 c7 -7 12 -24 12 -38 0 -32 -17 -50
-47 -50 -21 0 -23 4 -23 50 0 46 2 50 23 50 13 0 28 -5 35 -12z"/>
<path d="M4230 2088 c-6 -24 -20 -73 -30 -110 -10 -38 -15 -68 -10 -68 5 0 11
14 15 30 6 26 11 30 41 30 30 0 37 -4 46 -31 6 -16 12 -28 15 -26 6 7 -51 217
-59 217 -4 0 -12 -19 -18 -42z m31 -30 c5 -24 12 -51 15 -60 4 -15 -1 -18 -27
-18 -30 0 -31 1 -25 33 4 17 10 47 13 65 7 40 12 36 24 -20z"/>
<path d="M4420 2020 c0 -67 4 -110 10 -110 6 0 10 23 10 50 0 67 21 66 56 -1
14 -28 28 -49 30 -46 3 3 -4 24 -16 47 -20 38 -20 43 -6 59 19 21 21 82 4 99
-7 7 -29 12 -50 12 l-38 0 0 -110z m78 88 c7 -7 12 -24 12 -38 0 -32 -17 -50
-47 -50 -21 0 -23 4 -23 50 0 46 2 50 23 50 13 0 28 -5 35 -12z"/>
<path d="M4640 2020 c0 -67 4 -110 10 -110 6 0 10 23 10 50 0 67 21 66 56 -1
14 -28 28 -49 30 -46 3 3 -4 24 -16 47 -20 38 -20 43 -6 59 19 21 21 82 4 99
-7 7 -29 12 -50 12 l-38 0 0 -110z m78 88 c7 -7 12 -24 12 -38 0 -32 -17 -50
-47 -50 -21 0 -23 4 -23 50 0 46 2 50 23 50 13 0 28 -5 35 -12z"/>
<path d="M4874 2020 c0 -63 1 -89 3 -57 2 31 2 83 0 115 -2 31 -3 5 -3 -58z"/>
<path d="M5012 2023 l-2 -113 48 2 47 1 -42 4 -42 4 -4 107 -3 107 -2 -112z"/>
<path d="M5212 2023 l-2 -113 53 2 52 1 -45 6 -45 6 -6 105 -5 105 -2 -112z"/>
<path d="M5426 2024 c-26 -100 -31 -151 -8 -85 9 26 16 31 42 31 25 0 34 -6
45 -32 8 -18 14 -27 15 -20 0 23 -53 212 -60 212 -4 0 -19 -48 -34 -106z m48
39 c3 -21 9 -48 12 -60 6 -20 3 -23 -26 -23 -29 0 -32 3 -26 23 3 12 9 39 12
60 4 20 10 37 14 37 4 0 10 -17 14 -37z"/>
<path d="M1867 2042 c-24 -27 -21 -58 9 -81 35 -27 50 -26 80 4 l25 25 202 0
203 0 26 -94 c244 -868 962 -1539 1841 -1720 300 -62 683 -60 1000 5 263 54
586 190 822 347 480 319 845 815 996 1352 l26 95 213 3 c204 2 213 2 227 -18
17 -24 65 -27 87 -4 24 23 20 70 -6 88 -30 22 -42 20 -76 -9 l-30 -25 -721 0
c-634 0 -721 -2 -721 -15 0 -13 33 -15 235 -15 129 0 235 -2 235 -5 0 -3 -16
-47 -35 -97 -51 -131 -145 -308 -223 -418 -120 -169 -327 -368 -504 -485 -32
-21 -58 -44 -58 -51 0 -20 4 -18 67 22 211 135 421 347 573 579 62 95 147 269
185 378 l28 77 243 0 c134 0 244 -2 244 -4 0 -19 -71 -234 -105 -318 -129
-314 -286 -549 -530 -793 -273 -274 -566 -456 -920 -574 -279 -93 -475 -125
-770 -124 -391 0 -719 79 -1066 254 -421 213 -767 544 -1007 964 -89 156 -204
444 -227 568 l-7 37 248 0 249 0 29 -82 c121 -344 362 -670 654 -888 130 -97
182 -127 182 -106 0 8 -35 38 -77 67 -124 83 -191 139 -313 266 -136 140 -227
265 -310 425 -52 99 -130 286 -130 311 0 4 104 7 230 7 198 0 230 2 230 15 0
13 -87 15 -723 15 -710 0 -723 0 -740 20 -21 25 -68 26 -90 2z"/>
<path d="M3560 1994 c0 -21 4 -25 23 -22 14 2 23 11 25 26 3 18 -1 22 -22 22
-21 0 -26 -5 -26 -26z"/>
<path d="M3690 1994 c0 -21 4 -25 23 -22 14 2 23 11 25 26 3 18 -1 22 -22 22
-21 0 -26 -5 -26 -26z"/>
<path d="M5760 1994 c0 -21 4 -25 23 -22 14 2 23 11 25 26 3 18 -1 22 -22 22
-21 0 -26 -5 -26 -26z"/>
<path d="M5890 1994 c0 -21 4 -25 23 -22 14 2 23 11 25 26 3 18 -1 22 -22 22
-21 0 -26 -5 -26 -26z"/>
<path d="M4340 1283 c-143 -21 -264 -73 -308 -132 -26 -34 -27 -38 -30 -202
-3 -153 -2 -171 17 -208 53 -102 184 -176 396 -223 45 -10 175 -13 510 -13
441 0 451 0 497 22 81 37 89 61 86 242 l-3 153 -37 33 c-54 46 -96 55 -264 55
-172 0 -185 5 -203 73 -31 125 -239 208 -511 206 -69 -1 -136 -3 -150 -6z
m436 -77 c44 -14 99 -39 121 -55 37 -27 47 -44 69 -115 5 -16 22 -38 37 -50
26 -19 46 -21 207 -26 160 -4 181 -7 206 -26 15 -11 32 -27 38 -36 17 -28 -5
-69 -49 -92 -39 -20 -52 -21 -490 -21 l-450 1 -96 26 c-160 43 -261 104 -299
179 -49 94 0 169 136 214 88 28 145 34 319 31 151 -3 179 -6 251 -30z m-579
-387 c152 -73 292 -89 761 -89 290 0 369 3 417 15 32 9 65 21 72 27 11 8 13
-5 13 -71 0 -73 -3 -85 -24 -106 -44 -44 -79 -47 -545 -42 -407 3 -441 5 -518
25 -160 42 -270 109 -307 186 -9 20 -16 60 -16 96 l0 62 43 -37 c23 -20 70
-50 104 -66z"/>
<path d="M4332 1190 c-126 -18 -214 -59 -233 -108 -34 -89 100 -191 306 -233
88 -18 132 -19 540 -17 408 3 446 4 462 21 17 16 16 18 -5 40 -21 21 -33 22
-205 27 -231 7 -260 19 -278 117 -14 74 -54 105 -179 137 -77 20 -314 29 -408
16z m197 -103 c24 -56 39 -66 100 -74 41 -5 51 -9 51 -24 0 -16 -8 -19 -54
-19 -30 0 -98 9 -151 20 -53 11 -120 20 -149 20 -58 0 -82 11 -73 34 5 12 21
16 69 16 66 0 131 23 157 53 21 26 30 21 50 -26z"/>
</g>
</svg>
